<svg xmlns="http://www.w3.org/2000/svg" width="100" height="35.264" viewBox="0 0 100 35.264"><defs><style>.a{fill:#5c2d91;}</style></defs><g transform="translate(-139 -23)"><path class="a" d="M95.125,34.55a9.1,9.1,0,0,1-3.434.709,8.2,8.2,0,0,1-6.555-3.381c-.936-1.43-9.8-15.421-10.176-16.042-.022-.044-.986-2.035-2.884-1.926-3.284.312-3.122,3.04-3.122,3.156V32.952a2.437,2.437,0,0,1-2.482,2.307h0a2.45,2.45,0,0,1-2.538-2.026v-16.6A8.14,8.14,0,0,1,79,12.724L89.138,28.7a3.164,3.164,0,0,0,4.245,1.077,2.987,2.987,0,0,0,1.62-2.5V11.022a2.529,2.529,0,0,1,2.5-2.138h0a2.489,2.489,0,0,1,2.5,2.107V27.267a7.745,7.745,0,0,1-4.864,7.283M61.624,33.127h0A2.538,2.538,0,0,1,59.1,35.249h0a2.515,2.515,0,0,1-2.529-2.123V11.076A2.517,2.517,0,0,1,59.1,8.931h0a2.535,2.535,0,0,1,2.525,2.123Zm-7.383-11.06a1.217,1.217,0,0,1-1.3,1.27H39.2a1.3,1.3,0,0,1,0-2.6H51.575a10.614,10.614,0,1,0-1.464,6.852A1.293,1.293,0,0,1,52.278,29a13.192,13.192,0,1,1,1.967-6.933M13.158,8.875A13.258,13.258,0,0,0,2.5,14.194V1.249a1.249,1.249,0,1,0-2.5,0v21.2a13.008,13.008,0,0,0,13.161,12.8c7.873,0,13.161-6.868,13.161-13.283A13.161,13.161,0,0,0,13.158,8.875Zm-.047,23.749A10.645,10.645,0,1,1,23.724,21.948v.031A10.614,10.614,0,0,1,13.142,32.624Z" transform="translate(139 23)"/></g></svg>