<svg xmlns="http://www.w3.org/2000/svg" width="130" height="45.843" viewBox="0 0 130 45.843"><defs><style>.a{fill:#5c2d91;}</style></defs><g transform="translate(75.131 26.494)"><g transform="translate(-75.131 -26.494)"><g transform="translate(0)"><path class="a" d="M123.663,44.915a11.829,11.829,0,0,1-4.464.921,10.661,10.661,0,0,1-8.522-4.395c-1.217-1.859-12.738-20.047-13.229-20.855-.028-.057-1.282-2.646-3.75-2.5-4.269.406-4.058,3.953-4.058,4.1V42.837a3.168,3.168,0,0,1-3.226,3h0a3.185,3.185,0,0,1-3.3-2.634V21.622c0-.069.154-6.7,6.493-9.293a10.633,10.633,0,0,1,13.087,4.212l13.185,20.765a4.114,4.114,0,0,0,5.519,1.4A3.884,3.884,0,0,0,123.5,35.46V14.329a3.288,3.288,0,0,1,3.246-2.78h0A3.236,3.236,0,0,1,130,14.289V35.448a10.068,10.068,0,0,1-6.323,9.468m-43.564-1.85h0a3.3,3.3,0,0,1-3.283,2.76h0a3.269,3.269,0,0,1-3.287-2.76V14.4a3.272,3.272,0,0,1,3.287-2.788h0a3.3,3.3,0,0,1,3.283,2.76Zm-9.6-14.378a1.583,1.583,0,0,1-1.692,1.652H50.966a1.69,1.69,0,1,1,0-3.38H67.048a13.8,13.8,0,1,0-1.9,8.908A1.68,1.68,0,0,1,67.961,37.7a17.15,17.15,0,1,1,2.557-9.013M17.1,11.537A17.235,17.235,0,0,0,3.246,18.452V1.623A1.623,1.623,0,0,0,0,1.623V29.186A16.91,16.91,0,0,0,17.109,45.824c10.235,0,17.109-8.928,17.109-17.267C34.218,18.046,25.335,11.537,17.1,11.537Zm-.061,30.874a13.838,13.838,0,1,1,13.8-13.879v.041A13.8,13.8,0,0,1,17.085,42.411Z" transform="translate(0 0)"/></g></g></g></svg>