<svg xmlns="http://www.w3.org/2000/svg" width="30" height="30" viewBox="0 0 30 30"><defs><style>.a{fill:#f7994e;stroke:#e9e9f0;}.b{fill:#fff;}.c{stroke:none;}.d{fill:none;}</style></defs><g transform="translate(-248 -496)"><g class="a" transform="translate(249 497)"><circle class="c" cx="14" cy="14" r="14"/><circle class="d" cx="14" cy="14" r="14.5"/></g><g transform="translate(254 503)"><path class="b" d="M92.976,3.063h1.555L92.039.208a.6.6,0,0,0-.831-.064.6.6,0,0,0-.064.831Z" transform="translate(-86.158 -0.006)"/><path class="b" d="M181.714,23.107a.588.588,0,0,0-.831-.831L179.2,23.959h1.641Z" transform="translate(-169.655 -20.923)"/><path class="b" d="M16.449,69.4H1.321A1.328,1.328,0,0,0,0,70.721V80.2a1.328,1.328,0,0,0,1.321,1.321H16.449A1.328,1.328,0,0,0,17.77,80.2V70.721A1.328,1.328,0,0,0,16.449,69.4Zm-3.9,9.354a.909.909,0,0,1-.916.916H2.876a.909.909,0,0,1-.916-.916V72.191a.909.909,0,0,1,.916-.916h8.757a.909.909,0,0,1,.916.916Zm3.771-2.045a.191.191,0,0,1-.192.192H14.212a.191.191,0,0,1-.192-.192V75.259a.191.191,0,0,1,.192-.192h1.918a.191.191,0,0,1,.192.192Zm0-3.068a.191.191,0,0,1-.192.192H14.212a.191.191,0,0,1-.192-.192V72.191A.191.191,0,0,1,14.212,72h1.918a.191.191,0,0,1,.192.192Z" transform="translate(0 -65.704)"/></g></g></svg>