<svg xmlns="http://www.w3.org/2000/svg" xmlns:xlink="http://www.w3.org/1999/xlink" width="34" height="34" viewBox="0 0 34 34"><defs><style>.a{fill:none;}.b{clip-path:url(#a);}.c{fill:#fff;stroke:rgba(74,53,98,0.3);}.d{fill:#4a3562;}.e{stroke:none;}</style><clipPath id="a"><rect class="a" width="34" height="34"/></clipPath></defs><g class="b"><g class="c"><circle class="e" cx="17" cy="17" r="17"/><circle class="a" cx="17" cy="17" r="16.5"/></g><path class="d" d="M15.332,176.309a.719.719,0,0,0-.5-.209.691.691,0,0,0-.5.209L3.852,186.782a.79.79,0,0,0-.141.209c-.01.019-.015.034-.024.053a.5.5,0,0,0-.019.049l-1.075,3.851a.72.72,0,0,0,.18.7.707.707,0,0,0,.5.209.845.845,0,0,0,.19-.024l3.851-1.079a.5.5,0,0,1,.049-.019.26.26,0,0,0,.053-.024.675.675,0,0,0,.209-.136L18.1,180.092a.713.713,0,0,0,0-1.006Zm-8.2,12.744-1.765-1.765,9.467-9.467,1.765,1.765Z" transform="translate(6.433 -167.1)"/></g></svg>