<svg xmlns="http://www.w3.org/2000/svg" width="70.091" height="20.664" viewBox="0 0 70.091 20.664"><defs><style>.a{fill:#fff;}</style></defs><path class="a" d="M27.841,214.966h62.9A1.157,1.157,0,0,0,91.885,214H26.7A1.15,1.15,0,0,0,27.841,214.966Z" transform="translate(-24.242 -194.303)"/><path class="a" d="M106.4,167.885h.506v1.408h.341v-1.408h.506V167.6H106.4Z" transform="translate(-96.607 -152.173)"/><path class="a" d="M167.812,168.263h-.663V167.6h-.35v1.694h.35v-.746h.663v.746h.35V167.6h-.35Z" transform="translate(-151.447 -152.173)"/><path class="a" d="M333.256,172.9a.856.856,0,1,0,.856.856A.86.86,0,0,0,333.256,172.9Zm-.074.377a.073.073,0,0,1,.074-.074.068.068,0,0,1,.074.074v.506a.073.073,0,0,1-.074.074.068.068,0,0,1-.074-.074Zm.064,1.022a.532.532,0,0,1-.525-.534.493.493,0,0,1,.138-.368.072.072,0,1,1,.1.1.349.349,0,0,0-.092.267.385.385,0,0,0,.387.4.393.393,0,0,0,.4-.4.368.368,0,0,0-.11-.267.072.072,0,0,1,.1-.1.534.534,0,0,1-.4.9Z" transform="translate(-301.805 -156.986)"/><path class="a" d="M186.606,167.693a.575.575,0,0,0-.258-.156,1.346,1.346,0,0,0-.322-.037H185.4v1.7h.644a.908.908,0,0,0,.3-.037.549.549,0,0,0,.239-.138.708.708,0,0,0,.184-.3,1.051,1.051,0,0,0,.055-.359,1.305,1.305,0,0,0-.055-.4A.871.871,0,0,0,186.606,167.693Zm-.175.976a.461.461,0,0,1-.092.166.332.332,0,0,1-.138.074,1.007,1.007,0,0,1-.2.018h-.258V167.8h.156a1.8,1.8,0,0,1,.285.018.286.286,0,0,1,.156.083.364.364,0,0,1,.1.166.908.908,0,0,1,.037.3A1.235,1.235,0,0,1,186.431,168.669Z" transform="translate(-168.335 -152.083)"/><path class="a" d="M105.644,129.127l.525-.534.874,1.5h.838l-1.27-1.951,1.206-1.243h-.865l-1.307,1.417V126.9H105v3.194h.644Z" transform="translate(-95.335 -115.22)"/><path class="a" d="M124.623,168.686a.569.569,0,0,0-.184-.138.513.513,0,0,0,.331-.156.448.448,0,0,0,.11-.313.5.5,0,0,0-.074-.267.479.479,0,0,0-.193-.166,1.316,1.316,0,0,0-.4-.046H123.5v1.694h.341v-.709h.074a.713.713,0,0,1,.175.018.193.193,0,0,1,.1.074,2.861,2.861,0,0,1,.184.249l.249.368h.4l-.2-.331C124.733,168.833,124.669,168.741,124.623,168.686Zm-.534-.368h-.258v-.433h.267a1.384,1.384,0,0,1,.249.009.193.193,0,0,1,.129.064.226.226,0,0,1,.046.138.2.2,0,0,1-.037.129.234.234,0,0,1-.092.074A1.641,1.641,0,0,1,124.089,168.318Z" transform="translate(-112.133 -152.173)"/><path class="a" d="M140.863,167.6l-.663,1.694h.359l.138-.387h.681l.147.387h.368l-.681-1.694Zm-.055,1.022.23-.626.23.626Z" transform="translate(-127.295 -152.173)"/><path class="a" d="M94.35,167.7H94v1.684h1.2V169.1H94.35Z" transform="translate(-85.348 -152.264)"/><path class="a" d="M76.607,130h.6v-.644h.4v-.534h-.4V126.8H76.69l-1.39,2.025v.534h1.307Zm-.736-1.187.736-1.1v1.1Z" transform="translate(-68.369 -115.129)"/><path class="a" d="M76.312,168.357a1.794,1.794,0,0,1-.018.285.215.215,0,0,1-.092.147.354.354,0,0,1-.221.055.359.359,0,0,1-.23-.064.266.266,0,0,1-.1-.166,2.028,2.028,0,0,1-.009-.285v-.92H75.3v.9a1.744,1.744,0,0,0,.037.433.5.5,0,0,0,.092.184.5.5,0,0,0,.2.147.935.935,0,0,0,.368.055.78.78,0,0,0,.322-.055.655.655,0,0,0,.2-.138.5.5,0,0,0,.1-.212,2.314,2.314,0,0,0,.028-.433V167.4h-.341Z" transform="translate(-68.369 -151.992)"/><path class="a" d="M70.027,93.1l.018.018a.136.136,0,0,1-.1.23H.147a.139.139,0,0,1-.129-.083.144.144,0,0,1,.028-.147L.064,93.1A.144.144,0,0,0,0,93.22v9.72a1.3,1.3,0,0,0,1.3,1.3h1.16c-.009-.046-.009-.092-.018-.138H67.652a.71.71,0,0,1-.018.138h1.16a1.3,1.3,0,0,0,1.3-1.3V93.22A.144.144,0,0,0,70.027,93.1Zm-36.8,8.818a1.161,1.161,0,0,1-1.16,1.16H5.992a1.161,1.161,0,0,1-1.16-1.16V95.76a1.161,1.161,0,0,1,1.16-1.16H32.077a1.161,1.161,0,0,1,1.16,1.16v6.158Zm28.745.939a1.017,1.017,0,0,1-1.031-1v-1.666a.1.1,0,0,1,.2,0V101.2a1,1,0,0,1,.838-.414,1.034,1.034,0,0,1,1.031,1.031A1.056,1.056,0,0,1,61.973,102.857Zm3.231-1.04a.1.1,0,0,1-.092.1H64.026a.1.1,0,1,1,0-.2H65a.823.823,0,0,0-.93-.718.831.831,0,0,0,.212,1.648.814.814,0,0,0,.607-.4.165.165,0,0,1,.064-.046.072.072,0,0,1,.074.018.1.1,0,0,1,.028.138,1.054,1.054,0,1,1,.147-.543Zm.58.874a.207.207,0,0,1-.4,0v-1.73a.2.2,0,0,1,.2-.166.21.21,0,0,1,.2.166Zm2.632.11h0a.66.66,0,0,1-.267.055.641.641,0,0,1-.515-.267c-.074-.11-.773-1.215-.8-1.261a.259.259,0,0,0-.23-.147.244.244,0,0,0-.249.249v1.252a.193.193,0,0,1-.193.184.2.2,0,0,1-.2-.156V101.4a.65.65,0,0,1,.4-.561.638.638,0,0,1,.792.258l.8,1.252a.252.252,0,0,0,.331.083.242.242,0,0,0,.129-.193v-1.279a.2.2,0,0,1,.193-.166.185.185,0,0,1,.193.166v1.279A.593.593,0,0,1,68.416,102.8Z" transform="translate(0 -84.531)"/><path class="a" d="M664.938,178.7a.838.838,0,0,0,0,1.675h0a.833.833,0,0,0,.828-.838h0A.816.816,0,0,0,664.938,178.7Z" transform="translate(-602.974 -162.252)"/><path class="a" d="M68.481,66.468h0a5.872,5.872,0,0,0,2.715-.534h0c.387-.295-.193-.534-1.3-.534a5.764,5.764,0,0,0-2.715.543C66.787,66.228,67.376,66.468,68.481,66.468Z" transform="translate(-60.887 -59.38)"/><path class="a" d="M70.589,8.551a.1.1,0,0,1,.074.028L63.778.976A2.6,2.6,0,0,0,62.038,0H9.325a2.6,2.6,0,0,0-1.74.976L.7,8.569a.1.1,0,0,1,.074-.028H70.589Zm-50.3-2.632c1.059-.092,1.583.046,1.675.166l.838.81c0,.009.12.12.727.055A1.27,1.27,0,0,0,24,6.82L25.082,6a1.5,1.5,0,0,1,.617-.11c.258,0,.377.055.331.11l-1.1.819a2.7,2.7,0,0,1-1.4.368h0a5.992,5.992,0,0,1-.69.037,1.989,1.989,0,0,1-1-.175c-.083-.074-.81-.782-.838-.81,0,0-.046-.1-.414-.1a1.511,1.511,0,0,0-.8.156l-1.068.8a1.378,1.378,0,0,1-.626.12c-.276,0-.4-.055-.341-.1l1.114-.838A3.181,3.181,0,0,1,20.287,5.918Zm-1.813-.028c.267,0,.387.055.331.11L17.323,7.115a1.626,1.626,0,0,1-.617.11c-.267,0-.387-.055-.331-.11L17.848,6A1.547,1.547,0,0,1,18.474,5.891ZM12.546,6.2a9.383,9.383,0,0,1,3.7-.221c.571.12.736.331.423.561h0a.571.571,0,0,1-.3.064H13.752c-.138,0-.2-.028-.156-.064a.694.694,0,0,1,.331-.064h2.329c.249-.295-.469-.5-1.62-.46a4.7,4.7,0,0,0-2.522.6c-.249.295.469.5,1.62.46a8.121,8.121,0,0,0,1.795-.249.654.654,0,0,1,.193-.028.845.845,0,0,1,.166.009c.083.018.064.055-.046.092a9.383,9.383,0,0,1-3.7.221C11.239,6.931,11.414,6.517,12.546,6.2Zm-6.1.368L7.861,5.5a.678.678,0,0,1,.322-.064c.129,0,.193.028.147.064l-.865.654a10.824,10.824,0,0,1,2.366-.267c1.187,0,2.145.249,1.6.663a7.318,7.318,0,0,1-3.369.672C6.71,7.225,5.983,6.94,6.444,6.572Z" transform="translate(-0.636 0)"/></svg>