<svg xmlns="http://www.w3.org/2000/svg" width="31" height="37" viewBox="0 0 31 37"><defs><style>.a,.b,.d{fill:none;}.a{stroke:#fff;}.c,.e{stroke:none;}.e{fill:#fff;}</style></defs><g transform="translate(-55 -519)"><g class="a" transform="translate(61 519)"><circle class="c" cx="9" cy="9" r="9"/><circle class="d" cx="9" cy="9" r="8.5"/></g><g class="b" transform="translate(55 540)"><path class="c" d="M8,0a47.194,47.194,0,0,0,7.015.553A72.392,72.392,0,0,0,23,0a8,8,0,0,1,8,8v8H0V8A8,8,0,0,1,8,0Z"/><path class="e" d="M 23.06185150146484 1.000268936157227 C 22.48249626159668 1.073829650878906 18.57233238220215 1.552849769592285 15.01456928253174 1.552849769592285 C 11.52067375183105 1.552849769592285 8.482229232788086 1.090864181518555 7.921089172363281 1.00043773651123 C 4.09754753112793 1.042963981628418 0.9999980926513672 4.166574478149414 0.9999980926513672 7.999999523162842 L 0.9999980926513672 15 L 30 15 L 30 7.999999523162842 C 30 4.160921096801758 26.8931713104248 1.033750534057617 23.06185150146484 1.000268936157227 M 7.999998092651367 -9.5367431640625e-07 C 7.999998092651367 -9.5367431640625e-07 11.26456832885742 0.5528497695922852 15.01456928253174 0.5528497695922852 C 18.76456832885742 0.5528497695922852 23 -9.5367431640625e-07 23 -9.5367431640625e-07 C 27.41827964782715 -9.5367431640625e-07 31 3.581719398498535 31 7.999999523162842 L 31 16 L -1.9073486328125e-06 16 L -1.9073486328125e-06 7.999999523162842 C -1.9073486328125e-06 3.581719398498535 3.581718444824219 -9.5367431640625e-07 7.999998092651367 -9.5367431640625e-07 Z"/></g></g></svg>